<?xml version="1.0" encoding="UTF-8"?>
<svg id="_레이어_2" data-name="레이어 2" xmlns="http://www.w3.org/2000/svg" viewBox="0 0 425.21 425.2">
  <defs>
    <style>
      .cls-1 {
        fill: #99d9e8;
      }

      .cls-2 {
        fill: #fff;
      }

      .cls-3 {
        fill: #0e3192;
      }

      .cls-4 {
        fill: #ccc;
      }

      .cls-5 {
        fill: #fecc2e;
      }

      .cls-6 {
        fill: #595959;
      }

      .cls-7 {
        fill: #80c52f;
      }

      .cls-8 {
        fill: #28a05f;
      }

      .cls-9 {
        fill: #fe8026;
      }
    </style>
  </defs>
  <circle class="cls-2" cx="212.61" cy="212.6" r="212.6"/>
  <g>
    <g>
      <path class="cls-6" d="M0,212.62c0,117.2,95.34,212.56,212.55,212.56s212.65-95.36,212.65-212.56S329.8,0,212.55,0,0,95.39,0,212.62ZM4.79,212.62C4.79,98.02,97.98,4.79,212.55,4.79s207.85,93.23,207.85,207.82-93.24,207.77-207.85,207.77S4.79,327.19,4.79,212.62Z"/>
      <path class="cls-6" d="M11.38,212.62c0,110.94,90.23,201.2,201.17,201.2s201.28-90.26,201.28-201.2S323.54,11.38,212.55,11.38,11.38,101.66,11.38,212.62ZM13.17,212.62C13.17,102.65,102.62,13.18,212.55,13.18s199.48,89.47,199.48,199.44-89.48,199.4-199.48,199.4S13.17,322.57,13.17,212.62Z"/>
      <g>
        <g>
          <path class="cls-6" d="M340.41,329.59c1.34,1.18,2.34,3.71.34,5.95-1.57,1.77-3.97,2.08-5.76.45-1.86-1.64-2.18-4.2-.45-6.11,1.93-2.2,4.47-1.55,5.87-.3Z"/>
          <path class="cls-6" d="M87.83,328.1c1.31,1.19,2.32,3.72.31,5.92-1.59,1.79-3.93,2.11-5.75.47-1.83-1.63-2.18-4.2-.44-6.13,1.92-2.17,4.46-1.55,5.88-.27Z"/>
          <path class="cls-6" d="M67.62,314.66c-4.63,3.04-5.46,3.58-6.37,4.27-.97.72-1.29,1.27-.85,2.38.1.28.39.81.57,1.07.08.12.1.28-.02.35-.18.12-.34,0-.55-.32-.87-1.33-1.93-3.14-2.05-3.32-.18-.26-1.4-1.93-1.98-2.81-.21-.33-.26-.52-.08-.64.13-.08.26,0,.33.13.14.21.29.36.58.68.67.7,1.33.61,2.42-.01.98-.56,1.82-1.11,6.44-4.15l1.78-1.17-.08-.12c-.89-.13-9.88-1.91-11.74-2.22-1.4-.26-2.68-.53-3.19-.2-.36.24-.44.5-.37.8.04.19.05.34-.06.42-.15.1-.3-.01-.44-.22-.39-.6-.91-1.57-1.38-2.28-.1-.15-1.47-2.05-1.96-2.79-.21-.33-.23-.48-.08-.58.14-.1.24-.08.39.15.3.45.85.98,1.51,1.4,1.33.86,2.51,1.03,4.65,1.53,1.2.27,9.64,2.12,10.79,2.26.35-1.33,2.67-11.7,3-13.66.68-4.01.82-4.83.48-6.64-.18-.98-.69-1.89-.82-2.09-.13-.21-.2-.43-.08-.5.15-.1.34,0,.66.49l1,1.52c.55.83.91,1.39,1.28,2.08.89,1.67.72,2.85.55,4.78-.22,2.05-2.88,12.8-3.7,15.38l.09.15,2.91-1.91c2.85-1.87,5.19-3.41,6.34-4.38.8-.66,1.33-1.27.87-2.23-.21-.46-.47-.97-.64-1.23-.12-.17-.06-.3.03-.35.15-.1.34,0,.55.32.96,1.45,2,3.24,2.16,3.47.15.24,1.38,1.9,1.96,2.79.21.33.25.51.07.64-.09.06-.21.05-.33-.12-.18-.27-.47-.59-.7-.81-.51-.51-1.26-.23-2.2.21-1.34.67-3.69,2.21-6.53,4.08l-5.23,3.43Z"/>
          <path class="cls-6" d="M53.58,287.14c-7.2,2.92-12.49.27-14.72-5.22-2.1-5.19.2-11.72,8.09-14.92,9.57-3.88,13.76,1.54,14.96,4.51,2.41,5.91-.66,12.52-8.33,15.63ZM55.77,289.89c5.92-2.4,11.42-8.98,7.76-18-3.21-7.93-11.4-10.66-18.77-7.68-7.67,3.1-10.09,10.53-7.1,17.93,3.68,9.08,12.79,9.91,18.11,7.75Z"/>
          <path class="cls-6" d="M41.46,253.07c-7.65,1.37-12.28-2.31-13.32-8.14-.99-5.52,2.6-11.43,10.99-12.93,10.17-1.82,13.14,4.35,13.71,7.49,1.13,6.29-3.23,12.12-11.37,13.58ZM43.03,256.2c6.28-1.13,13.01-6.44,11.29-16.01-1.5-8.42-8.96-12.78-16.79-11.38-8.13,1.46-12.04,8.22-10.64,16.08,1.73,9.64,10.47,12.33,16.13,11.31Z"/>
          <path class="cls-6" d="M34.68,217.05c-5.54-.05-6.53-.06-7.67,0-1.21.06-1.78.34-2.04,1.51-.07.29-.11.89-.12,1.21,0,.14-.07.29-.21.28-.21,0-.29-.18-.28-.57.02-1.6.13-3.69.14-3.91,0-.32-.09-2.38-.08-3.45,0-.38.08-.57.3-.56.14,0,.21.14.21.29,0,.25.04.47.1.89.17.96.77,1.24,2.01,1.33,1.14.08,2.13.09,7.67.14l2.13.02v-.14c-.67-.61-7.14-7.09-8.52-8.38-1.01-1-1.93-1.93-2.53-1.94-.43,0-.64.17-.75.46-.07.17-.14.31-.29.31-.18,0-.25-.17-.25-.43.02-.71.13-1.81.13-2.65,0-.18-.08-2.53-.07-3.41,0-.39.07-.53.25-.53.18,0,.25.07.25.36,0,.53.16,1.28.47,2,.63,1.46,1.5,2.25,3.02,3.86.85.89,6.83,7.12,7.7,7.88,1.04-.91,8.74-8.22,10.1-9.67,2.79-2.96,3.36-3.55,4.09-5.25.4-.92.47-1.95.48-2.2,0-.25.07-.46.21-.46.18,0,.29.18.28.78l-.02,1.81c0,.99,0,1.66-.09,2.45-.2,1.87-.98,2.76-2.21,4.27-1.32,1.58-9.52,9.03-11.63,10.72v.18l3.48.03c3.41.03,6.21.05,7.7-.11,1.03-.1,1.82-.3,1.96-1.37.08-.5.16-1.06.16-1.38,0-.21.11-.28.21-.28.17,0,.28.18.28.57-.02,1.74-.14,3.79-.14,4.08,0,.28.08,2.34.07,3.41,0,.39-.07.56-.29.56-.11,0-.21-.08-.21-.29,0-.32-.07-.75-.13-1.07-.13-.71-.92-.89-1.95-1.04-1.49-.19-4.29-.22-7.7-.25l-6.25-.06Z"/>
          <path class="cls-6" d="M54.63,159c1.28.16,3.27.38,4.11-.98.55-.93.77-1.82.85-2.17.04-.17.11-.27.24-.24.21.05.23.39.13.8-.18.76-1.18,4.47-1.59,5.72-.26.77-.41.93-.58.88-.13-.03-.19-.12-.18-.3,0-.18-.57-.36-1.21-.44l-18.21-2.63-.02.1,15.9,12.77c1.34,1.09,1.63,1.27,1.55,1.58-.05.24-.44.33-1.83.68-1.92.49-8.6,2.02-8.98,2.11-.7.16-9.91,2.03-10.93,2.18l-.03.14,15.68,5.24c.55.17,1.16.31,1.75.46.52.13,1.06-.14,1.29-.64.29-.55.44-1.07.49-1.27.03-.14.13-.26.23-.24.25.06.26.29.16.7-.3,1.28-.81,2.91-.87,3.19-.08.31-.38,2-.6,2.92-.08.34-.21.57-.46.51-.1-.02-.13-.21-.09-.39.07-.27.13-.51.15-1.06.06-1.19-1.25-1.61-2.53-2.07l-21.9-7.91c-.37-.16-.58-.32-.53-.53.04-.21.21-.32.64-.4l24.25-5.33-19.22-15.36c-.28-.21-.49-.41-.43-.65.05-.25.36-.28,1.03-.19l21.74,2.8Z"/>
          <path class="cls-6" d="M56.29,140.75c3.11,1.38,5.68,2.51,7.11,2.96.98.32,1.78.44,2.34-.47.27-.43.64-1.11.78-1.41.09-.2.21-.21.3-.17.16.08.2.28.04.64-.8,1.78-1.8,3.78-1.87,3.95-.07.16-.88,2.25-1.31,3.22-.16.36-.3.49-.49.41-.1-.04-.17-.15-.08-.35.13-.29.23-.71.3-1.03.15-.71-.48-1.19-1.37-1.73-1.3-.77-3.86-1.9-6.97-3.28l-5.71-2.53c-5.06-2.24-5.98-2.64-7.04-3.04-1.13-.42-1.83-.34-2.3.3-.26.31-.48.72-.58.95-.05.13-.18.23-.31.17-.2-.09-.18-.28-.03-.64.47-1.07,1.48-3.07,1.55-3.24.07-.16.88-2.24,1.32-3.22.15-.35.3-.49.48-.4.13.06.14.22.08.35-.1.22-.15.43-.26.85-.22.95.21,1.45,1.32,2.02,1.01.52,1.92.93,6.99,3.17l5.71,2.53Z"/>
          <path class="cls-6" d="M68.97,127.54c2.46,1.56,3.43,1.77,4.2,1.13.52-.46.98-1.09,1.16-1.36.1-.15.21-.2.33-.12.18.12.12.34-.12.69-1.13,1.69-2,2.81-2.18,3.07-.17.27-.91,1.57-1.8,2.89-.2.3-.35.45-.55.31-.12-.08-.12-.21-.02-.36.16-.23.48-.78.64-1.32.28-.88-.47-1.6-3.16-3.39l-16.9-11.32c-1.15-.77-1.41-1.07-1.25-1.3.15-.24,1.14-.31,1.63-.41.8-.11,8.48-1.33,16.39-2.63,5.08-.83,10.83-1.65,12.44-1.95l-15.22-9.68c-1.94-1.25-2.72-1.48-3.57-.72-.47.46-.96,1.11-1.11,1.35-.14.21-.25.18-.37.1-.18-.12-.05-.38.19-.73.89-1.33,1.92-2.69,2.14-3.02.21-.32.78-1.36,1.58-2.56.21-.33.38-.51.56-.39.12.08.13.25-.02.46-.1.15-.23.35-.38.77-.45,1.11.13,1.66,1.89,2.85l17.27,11.61c1.95,1.3,2.06,1.46,1.92,1.67-.16.23-.72.37-3.34.89-.51.13-7.69,1.48-13.14,2.36-5.98.96-11.93,1.82-13.62,2.05l14.4,9.05Z"/>
          <path class="cls-6" d="M92.59,80.09c-3.47-4.31-4.1-5.08-4.87-5.92-.81-.89-1.39-1.16-2.46-.62-.26.12-.75.47-1,.67-.11.09-.27.13-.36.01-.13-.16-.04-.33.27-.58,1.24-1,2.99-2.28,3.24-2.48.25-.2,1.84-1.62,2.68-2.29.3-.25.48-.3.62-.13.09.11.02.26-.09.34-.19.16-.34.31-.63.64-.65.71-.47,1.39.25,2.4.65.93,1.28,1.7,4.76,6.01l3.11,3.87c3.21,3.98,5.48,4.98,7.58,5.15,2.38.18,3.82-.57,5.4-1.84,1.68-1.36,2.7-3.5,2.74-5.49,0-2.6-1.57-5.21-3.87-8.06l-2.78-3.46c-3.47-4.3-4.1-5.08-4.86-5.92-.82-.89-1.4-1.16-2.46-.62-.27.12-.76.47-1.01.68-.11.08-.26.12-.35,0-.13-.17-.04-.34.26-.58,1.24-1.01,2.83-2.15,3-2.28.2-.15,1.42-1.28,2.25-1.96.31-.25.49-.3.63-.13.09.11.02.25-.09.34-.2.16-.36.29-.63.64-.63.74-.47,1.39.25,2.4.66.93,1.28,1.7,4.76,6.01l2.38,2.96c2.41,2.98,4.75,6.57,4.13,10.31-.56,3.37-2.42,5.32-4.04,6.64-.94.76-3.82,2.9-7.28,2.63-2.4-.21-5.01-1.3-8.26-5.33l-3.26-4.03Z"/>
          <path class="cls-6" d="M128.94,67.95c1.38,2.56,2.11,3.23,3.1,3.05.68-.14,1.4-.47,1.68-.61.15-.08.28-.07.35.06.09.19-.06.35-.45.54-1.8.91-3.11,1.46-3.4,1.61-.29.14-1.57.91-2.99,1.63-.32.16-.53.22-.64,0-.07-.13,0-.24.15-.32.25-.13.81-.44,1.2-.85.68-.62.38-1.62-1.08-4.51l-9.15-18.16c-.63-1.23-.71-1.63-.45-1.76.25-.13,1.15.3,1.61.45.75.3,8.05,3.01,15.58,5.76,4.83,1.77,10.24,3.89,11.79,4.42l-8.5-15.91c-1.06-2.04-1.64-2.63-2.76-2.38-.64.16-1.38.5-1.63.63-.22.11-.3.04-.37-.09-.1-.19.14-.35.52-.54,1.42-.72,3-1.4,3.34-1.57.36-.18,1.35-.8,2.65-1.46.35-.17.58-.26.69-.06.05.13-.02.28-.24.4-.16.08-.38.19-.72.48-.93.75-.71,1.51.26,3.41l9.33,18.59c1.06,2.09,1.07,2.28.85,2.4-.25.13-.81-.03-3.34-.86-.51-.14-7.43-2.49-12.61-4.4-5.68-2.1-11.28-4.28-12.87-4.9l8.09,14.96Z"/>
          <path class="cls-6" d="M163.31,47.49c1,3.25,1.82,5.94,2.43,7.31.4.95.83,1.63,1.9,1.46.49-.08,1.26-.24,1.57-.33.21-.06.3.02.34.12.04.17-.09.33-.47.44-1.86.57-4.04,1.13-4.21,1.18-.17.05-2.27.81-3.29,1.12-.38.12-.56.1-.63-.1-.03-.1,0-.22.21-.29.31-.09.7-.29.98-.44.64-.35.57-1.15.41-2.17-.27-1.48-1.09-4.16-2.09-7.42l-1.83-5.97c-1.63-5.29-1.92-6.25-2.32-7.31-.43-1.13-.94-1.61-1.74-1.54-.4,0-.85.11-1.09.18-.13.04-.3.02-.33-.11-.06-.21.08-.33.46-.44,1.12-.34,3.29-.89,3.45-.95.18-.05,2.28-.81,3.3-1.12.37-.12.56-.1.63.1.04.14-.07.25-.21.29-.23.07-.42.17-.81.37-.86.45-.96,1.11-.66,2.31.27,1.11.55,2.06,2.18,7.35l1.83,5.98Z"/>
          <path class="cls-6" d="M188.4,48.08c1.33-5.01,4.21-17.96,4.61-20.61.09-.55.16-1.06.12-1.38-.04-.29-.21-.62-.58-.74-.44-.08-.97,0-1.35.06-.21.03-.39.02-.42-.15-.03-.21.17-.31.73-.4,1.4-.21,3.03-.34,3.45-.41.21-.04,1.71-.36,2.72-.51.38-.06.61-.02.64.15.03.18-.11.27-.38.31-.24.04-1.02.16-1.62.68-.41.38-.85,1.06-1.44,3.59-.24,1.04-1.36,5.52-2.51,10.1-1.38,5.45-2.39,9.48-2.94,11.32-.67,2.25-.72,2.84-1.08,2.89-.41.07-.66-.4-1.58-1.98l-11.81-20.24c-1.06-1.85-1.65-2.16-2.93-2.32-.55-.06-1.15.02-1.35.05-.21.03-.3-.06-.32-.21-.03-.21.32-.3.88-.38,1.69-.26,3.7-.45,4.13-.51.35-.05,1.91-.39,3.25-.59.63-.09.96-.07.98.11.03.17-.06.26-.31.3-.38.06-1.01.19-1.31.37-.36.24-.39.53-.35.77.06.46.64,1.48,1.38,2.77l9.42,16.97Z"/>
          <path class="cls-6" d="M210.64,34.13c.1-5.54.12-6.53.07-7.67-.05-1.2-.32-1.79-1.49-2.05-.29-.07-.89-.13-1.21-.13-.13,0-.28-.08-.28-.21,0-.21.19-.29.57-.27,1.6.03,3.83.17,4.01.17.24,0,7.31.13,8.13.11.68-.02,1.25-.09,1.53-.15.18-.03.32-.17.5-.17.11,0,.14.15.13.32,0,.25-.19.67-.31,1.66-.04.36-.13,1.91-.21,2.34-.04.18-.12.39-.26.39-.21,0-.28-.18-.28-.47,0-.25-.02-.85-.19-1.28-.23-.58-.58-1.01-2.5-1.25-.6-.08-4.47-.18-4.86-.19-.14,0-.21.1-.21.35l-.18,9.79c0,.25.03.36.21.36.47,0,4.83.09,5.65.03.85-.06,1.35-.12,1.68-.47.24-.28.39-.45.54-.45.11,0,.18.07.17.29,0,.21-.2.81-.32,1.98-.08.71-.17,2.02-.18,2.27,0,.28,0,.68-.26.67-.18,0-.24-.14-.24-.32,0-.35,0-.71-.13-1.18-.13-.5-.44-1.11-1.83-1.27-.96-.13-4.47-.25-5.06-.27-.18,0-.25.1-.25.24l-.06,3.13c-.02,1.2-.13,5.32-.11,6.07.06,2.45.59,2.92,4.07,2.98.92.01,2.48.04,3.41-.33.93-.38,1.37-1.08,1.64-2.53.08-.39.15-.53.33-.53.21,0,.21.29.21.54,0,.29-.33,2.69-.52,3.44-.27.92-.55.91-1.93.89-5.36-.09-7.74-.35-8.77-.37-.18,0-2.41.07-3.48.04-.38,0-.55-.08-.55-.29,0-.11.07-.21.29-.21.32,0,.74-.06,1.06-.12.72-.13.9-.91,1.06-1.93.21-1.49.25-4.3.31-7.7l.11-6.25Z"/>
          <path class="cls-6" d="M242.13,28.05c.04-.21.17-.33.36-.37.37-.04,1.32.03,2.37.23,3.74.7,5.55,3.74,4.74,8.1-.5,2.65-1.76,4.37-3.14,4.98-.9.41-1.9.33-2.74.17-1.54-.28-3.1-.83-3.56-1.24-.15-.13-.2-.29-.16-.46l2.13-11.41ZM236.63,42.05c-.63,3.35-1.14,6.1-1.59,7.53-.32.99-.64,1.72-1.36,1.73-.33,0-.76,0-1.07-.05-.21-.04-.3.05-.32.16-.04.21.13.31.51.38,1.05.19,3.26.5,3.29.51.18.04,2.35.55,4.28.91.38.07.57,0,.61-.17.02-.1-.03-.22-.24-.26-.31-.06-1.06-.27-1.54-.43-1.02-.33-1.09-1.14-1.01-2.17.11-1.49.62-4.25,1.24-7.6l.15-.84c.04-.17.13-.26.3-.24l4.28.87c.21.04.3.13.41.3.53,1.03,1.74,3.68,2.84,5.87,1.5,2.98,2.41,4.93,3.76,6.01.81.65,1.66.99,3.61,1.36l2.48.46c.63.12.85.09.89-.13.03-.1-.1-.23-.27-.26-.21-.04-.7-.13-1.34-.36-.84-.3-2.28-.97-3.79-3.31-1.61-2.54-3.41-6.09-5.58-10.29,3.68-2.31,5.24-4.69,5.72-7.27.46-2.41-.76-4.41-1.51-5.19-1.6-1.67-3.9-2.32-6.1-2.73-1.08-.2-3.75-.59-4.13-.66-.18-.03-2.36-.55-3.93-.84-.38-.07-.57-.04-.61.17-.03.14.1.24.24.26.31.06.9.21,1.16.33,1.11.46,1.28,1.07,1.13,2.27-.13,1.13-.31,2.1-1.33,7.55l-1.15,6.14Z"/>
          <path class="cls-6" d="M261.14,57.75c-.38-.4-.37-.55-.04-1.45.6-1.67,1.21-2.96,1.44-3.48.16-.36.29-.5.46-.44.21.08.2.19.1.45-.11.3-.28.77-.34,1.28-.39,2.65,1.48,4.38,3.72,5.19,3.2,1.15,5.6-.59,6.37-2.73.82-2.3.34-3.99-1.68-7.39l-1.06-1.78c-2.5-4.18-2.55-6.54-1.74-8.81,1.29-3.57,4.83-5.05,9.07-3.53,1.3.47,2.23.95,2.99,1.45.59.36.84.49,1.11.59.27.09.3.19.25.35-.06.17-.59,1.22-1.41,3.49-.2.53-.35.74-.51.68-.21-.07-.18-.25-.12-.53.12-.42.23-1.39.17-1.83-.07-.44-.47-2.17-3.54-3.27-2.3-.83-4.62-.04-5.49,2.4-.69,1.9-.17,3.38,2.05,7.08l.67,1.07c2.83,4.52,3.02,6.93,2.06,9.6-.49,1.37-1.94,3.71-4.83,4.52-1.8.49-3.75.24-5.55-.41-1.57-.56-3.02-1.35-4.15-2.51Z"/>
          <path class="cls-6" d="M291.93,60.13c-1.57,3.03-2.85,5.52-3.37,6.93-.38.97-.55,1.76.33,2.37.41.29,1.07.71,1.36.86.19.09.21.22.15.32-.08.16-.29.17-.64,0-1.73-.9-3.67-2.02-3.83-2.1-.16-.08-2.19-1.01-3.14-1.5-.35-.18-.47-.32-.38-.51.05-.09.16-.15.35-.05.29.14.7.28,1.01.36.7.2,1.22-.41,1.81-1.26.84-1.24,2.13-3.74,3.69-6.77l2.86-5.55c2.53-4.92,2.99-5.81,3.45-6.85.49-1.11.46-1.8-.16-2.32-.3-.27-.69-.51-.91-.64-.13-.06-.21-.19-.15-.31.1-.19.29-.17.64,0,1.04.53,2.98,1.65,3.14,1.73.15.08,2.19,1.01,3.14,1.5.34.18.47.32.38.51-.07.13-.22.12-.36.06-.21-.11-.42-.18-.83-.31-.93-.28-1.47.13-2.09,1.2-.58.98-1.04,1.86-3.58,6.78l-2.85,5.55Z"/>
          <path class="cls-6" d="M312.82,73.14c-1.98,2.77-3.61,5.05-4.33,6.37-.51.9-.8,1.66,0,2.39.37.35.96.86,1.22,1.05.18.12.17.25.11.34-.11.14-.31.13-.63-.1-1.59-1.13-3.35-2.52-3.49-2.62-.14-.1-2.03-1.32-2.89-1.93-.32-.23-.42-.39-.3-.56.06-.09.19-.13.36,0,.26.19.64.38.95.5.66.3,1.26-.23,1.97-.99,1.01-1.11,2.64-3.39,4.62-6.17l8.73-12.22-4.32-3c-1.81-1.24-2.65-1.54-3.61-1.18-.67.26-.9.41-1.13.55-.25.17-.38.17-.49.09-.09-.06-.09-.19.04-.37.21-.29,2.56-2.36,2.78-2.55.18-.13.56-.42.68-.35.2.15.29.64,1.02,1.26.78.68,1.83,1.53,2.18,1.78l10.84,7.74c1.84,1.32,2.84,1.58,3.06,1.75.14.1.03.28-.1.45-.63.87-2.13,2.81-2.36,3.12-.19.26-.35.31-.47.23-.15-.1-.14-.23.12-.66l.2-.34c.51-.95.31-2.09-2.42-4.13l-3.6-2.66-8.72,12.22Z"/>
          <path class="cls-6" d="M331.92,90.88c1.36-1.35,1.66-2.15,2.07-3.2.23-.58,2.44-9.45,2.87-11.63.31-1.56.32-2.81.18-3.56-.13-.63-.45-1.26-.67-1.49-.13-.13-.2-.3-.08-.43.11-.1.29-.08.51.15.47.48,2.26,2.45,2.39,2.58.18.17,1.2,1.06,2.17,2.04.28.28.25.4.15.51-.11.1-.28-.03-.61-.16-.3-.1-.57-.08-.78.12-.3.3-.47.72-.65,1.31-.33,1.13-3.1,11.35-3.38,12.53,1.53-.57,10.23-2.83,11.56-3.15.85-.2,1.38-.52,1.71-.84.36-.35.54-.72.3-1.11-.14-.3-.24-.5-.12-.63.1-.1.3,0,.55.26.65.65,1.38,1.53,1.57,1.74.15.15,2.02,1.9,2.5,2.38.18.18.28.38.18.48-.13.13-.33.07-.53-.13-.28-.28-.85-.66-1.5-.81-.81-.21-1.38-.18-2.61-.07-1.83.17-11.26,2.5-12.8,3.12-1.28.52-2.06,1.29-2.89,2.12l-2.17,2.15c-.4.4-1.46,1.45-2.45,2.57-.68.77-1.01,1.55-.36,2.41.3.41.8,1,1.02,1.23.15.15.13.28.04.35-.13.13-.32.08-.6-.2-1.37-1.39-2.86-3.05-2.99-3.18-.13-.13-1.78-1.64-2.52-2.39-.28-.28-.35-.46-.2-.61.07-.07.2-.1.35.06.22.22.57.48.85.65.6.41,1.38.09,2.16-.59,1.14-.98,2.2-2.02,2.6-2.42l2.17-2.15Z"/>
          <path class="cls-6" d="M347.13,123.38c-.04-.4.04-.48.63-.85,1.1-.67,2.02-1.12,2.39-1.32.25-.13.39-.15.46-.04.08.13.03.2-.14.3-.2.12-.5.31-.77.56-1.42,1.33-1.15,3.15-.23,4.61,1.29,2.1,3.44,2.2,4.83,1.34,1.51-.94,2-2.1,2.39-4.94l.21-1.49c.47-3.49,1.5-4.85,3-5.77,2.34-1.44,5.01-.68,6.72,2.1.53.85.83,1.54,1.04,2.17.17.47.26.66.37.83.11.17.09.25-.03.31-.1.07-.88.43-2.36,1.35-.35.21-.54.26-.6.16-.09-.13.02-.22.18-.35.25-.18.75-.68.91-.96.16-.28.72-1.44-.53-3.45-.93-1.51-2.6-2.11-4.2-1.12-1.24.77-1.61,1.84-2.03,4.93l-.1.91c-.45,3.83-1.42,5.28-3.18,6.36-.89.55-2.77,1.23-4.77.38-1.24-.54-2.24-1.55-2.96-2.73-.64-1.03-1.1-2.13-1.22-3.3Z"/>
          <path class="cls-6" d="M364.08,139.12c-2.22,1.08-4.04,1.96-4.96,2.55-.64.4-1.07.78-.83,1.52.11.34.3.88.41,1.09.06.13.02.21-.05.25-.12.05-.23-.03-.37-.28-.62-1.28-1.24-2.76-1.31-2.88-.06-.12-.83-1.54-1.17-2.23-.12-.25-.13-.39,0-.46.06-.03.16-.02.22.12.1.21.29.47.43.65.32.42.89.29,1.59.06,1.03-.36,2.86-1.24,5.08-2.32l4.07-1.98c3.61-1.75,4.25-2.06,4.97-2.47.77-.43,1.05-.85.91-1.41-.05-.3-.17-.6-.25-.77-.04-.09-.04-.21.04-.26.13-.06.24.03.37.29.37.76,1,2.25,1.06,2.36.05.12.83,1.54,1.17,2.23.12.25.13.39,0,.46-.1.04-.19-.02-.22-.12-.08-.16-.18-.29-.36-.55-.41-.56-.9-.55-1.73-.21-.77.31-1.41.62-5.02,2.38l-4.07,1.98Z"/>
          <path class="cls-6" d="M365.89,153.02c-1.98.71-2.53,1.17-2.51,1.89.04.5.19,1.05.26,1.27.04.12,0,.21-.08.24-.14.05-.24-.08-.35-.38-.46-1.39-.71-2.39-.78-2.61-.07-.22-.49-1.22-.86-2.31-.08-.25-.11-.4.07-.46.09-.04.17.02.21.14.06.2.23.63.48.95.37.55,1.12.44,3.34-.3l13.99-4.63c.95-.31,1.24-.34,1.31-.13.06.19-.34.78-.5,1.11-.3.5-3.01,5.44-5.78,10.54-1.78,3.28-3.87,6.92-4.41,7.97l12.29-4.39c1.58-.55,2.06-.9,2-1.72-.05-.47-.21-1.04-.28-1.24-.05-.17,0-.21.11-.25.14-.05.23.14.33.43.37,1.1.68,2.29.77,2.56s.43,1.05.77,2.05c.08.27.13.45-.03.5-.1.03-.21-.04-.26-.21-.04-.13-.1-.3-.27-.56-.44-.75-1.01-.67-2.47-.18l-14.31,4.72c-1.61.53-1.75.52-1.81.35-.06-.2.11-.58.98-2.3.15-.34,2.57-5.06,4.48-8.56,2.1-3.85,4.26-7.63,4.88-8.7l-11.58,4.21Z"/>
          <path class="cls-6" d="M372.3,179.31c1.81-2.82,4.59-3.91,7-4.3,1.71-.28,4.77-.18,7.4,1.7,1.77,1.28,3.35,3.38,3.98,7.29.17,1.02.33,2.45.3,3.73-.02.99-.04,1.83.04,2.65.03.28-.07.35-.21.38-.21.04-.53,0-1.44.11-.85.09-2.25.32-2.63.35-.38.04-.55.01-.57-.14-.03-.17.15-.23.5-.29.98-.17,1.96-.74,2.41-1.49.62-1.01.98-3.08.62-5.31-.55-3.37-1.81-4.78-2.82-5.53-2.09-1.56-4.41-1.62-7-1.19-4.84.8-8.67,5.26-7.78,10.68.32,1.9.8,3.36,2,4.2.64.44,1.82.59,2.28.59.29,0,.4.04.42.19.03.13-.14.21-.35.24-.18.03-2.43.09-3.34-.02-.5-.07-.56-.11-.84-.54-.57-.95-1.07-2.85-1.33-4.47-.63-3.8-.12-6.52,1.35-8.82Z"/>
          <path class="cls-6" d="M384.76,202.6c4.01-.13,4.72-.16,5.55-.23.88-.08,1.27-.3,1.43-1.15.04-.21.05-.64.04-.87,0-.1.04-.21.14-.21.16,0,.21.13.22.41.04,1.15.02,2.78.02,2.9,0,.18.17,5.29.21,5.88.04.49.11.9.16,1.1.03.13.13.23.14.36,0,.07-.1.1-.23.11-.18,0-.49-.11-1.21-.17-.26-.02-1.4-.03-1.7-.08-.13-.02-.29-.07-.29-.17,0-.15.12-.21.32-.21.18,0,.62-.04.92-.18.4-.19.71-.46.81-1.85.04-.44-.03-3.24-.04-3.53,0-.1-.09-.15-.26-.15l-7.1.23c-.18,0-.25.04-.25.17.02.33.12,3.49.18,4.08.07.61.14.97.4,1.19.21.17.35.27.35.38,0,.08-.04.13-.21.13-.15,0-.59-.11-1.44-.16-.52-.04-1.47-.06-1.65-.05-.21,0-.49.02-.5-.17,0-.13.1-.18.23-.18.25,0,.51-.02.84-.13.36-.12.79-.36.85-1.37.06-.69.04-3.24.02-3.67,0-.13-.09-.18-.19-.17l-2.26.07c-.87.03-3.85.1-4.39.14-1.76.13-2.09.53-2,3.05.02.67.05,1.8.37,2.46.3.66.82.95,1.88,1.1.29.04.39.09.39.22,0,.15-.2.16-.38.17-.21,0-1.95-.14-2.5-.26-.67-.16-.68-.37-.72-1.36-.12-3.88-.03-5.61-.04-6.35,0-.05-.04-.49-.06-1.03-.04-.51-.08-1.11-.1-1.49,0-.28.04-.41.19-.42.08,0,.16.05.16.2,0,.23.07.54.13.77.12.51.69.62,1.44.7,1.07.09,3.1.03,5.57-.05l4.52-.14Z"/>
          <path class="cls-6" d="M381.25,240.7c-3.51-.55-6.52-1.04-8.09-1.11-1.11-.04-1.66.02-2.08,1.11-.2.51-.54,1.96-.59,2.28-.02.14-.18.26-.32.23-.18-.02-.21-.21-.14-.63.41-2.63.88-4.85.9-5.04.04-.17.39-3.13.75-5.37.06-.38.16-.55.34-.52.13.02.26.18.23.32-.07.42-.23,2.16-.21,2.85.03,1.19.51,1.52,1.59,1.76,1.52.35,4.54.84,8.04,1.4l6.13.98c1.9.3,3.41.51,5.33.81.7.12,1.1.11,1.19-.45.11-.67-.77-3.32-1.05-4.27-.07-.19-.09-.3-.07-.44.02-.1.21-.18.35-.16.11.01.23.14.31.3.11.23,3.28,7.14,3.44,7.49.2.35.33.66.29.9-.04.28-.44.29-.79.24-.29-.05-3.72-.77-9.09-1.63l-6.48-1.04Z"/>
          <path class="cls-6" d="M380.58,271.19c-9.55-2.89-13.13-12.27-13.94-17.05-.04-.23-.02-.45.03-.59.04-.13.21-.23.42-.17.21.06.33.25.38.48.99,4.68,5.06,11.61,13.04,14.03,5.95,1.8,9.76.09,10.67-2.89.92-3.06-1.11-5.41-3.79-6.23-5.64-1.7-8.03,2.13-8.3,3.05-.48,1.6-.35,2.38-.21,2.9.07.25.1.4.07.51-.04.1-.19.13-.29.1-.11-.04-.17-.08-.24-.22-.75-1.3-.73-3.19-.32-4.55,1.46-4.82,5.77-5.74,8.63-4.88,4.68,1.42,6.87,5.83,5.46,10.51-1.45,4.79-6.42,6.55-11.6,4.99Z"/>
          <path class="cls-6" d="M365.23,287.44l4.31-8.99c.5.99,6.45,13.48,7.05,14.36l-.03.07-11.34-5.43ZM374.33,294.79c1.76.85,4.3,2.11,4.79,2.34.31.15.59.17.7-.06.11-.22-.03-.52-.25-.95-.92-1.7-9.64-19.65-9.77-19.95-.1-.21-.28-.49-.54-.61-.29-.14-.52.11-.71.49l-5.06,10.56c-1.06-.51-3.55-1.62-4.9-2.43-.91-.55-1.48-1.1-1.13-2.24.18-.54.48-1.26.63-1.55.07-.16,0-.32-.13-.38-.16-.08-.3.06-.47.41-.84,1.76-1.58,3.53-1.68,3.76-.11.22-1.18,2.22-2.03,3.99-.16.35-.18.54-.02.62.13.07.31,0,.39-.16.15-.32.49-.95.8-1.35.74-.9,1.41-.89,2.42-.53,1.47.54,3.91,1.79,4.97,2.29l-1.41,2.95c-.19.38-.15.55.09.87.32.31.98.82,1.15.89.16.08.38.19.46.03.06-.13-.13-.62.28-1.48l1.17-2.43,10.27,4.92Z"/>
          <path class="cls-6" d="M356.46,311.12c.52-.76.99-1.56,1.13-2.45.04-.11.08-.37.14-.47.06-.09.17-.05.32.04.14.1.17.25.16.51,0,.87-.18,2.46-1.31,4.09-2.79,4.07-7.37,3.59-9.98,1.8-2.31-1.59-3.74-3.78-4.11-5.93-.38-2.28.03-4.24,1.51-6.41,2.82-4.09,7.83-4.74,13.15-1.08,5.67,3.9,8.79,12.59,7.35,19.95-.07.34-.14.64-.22.76-.08.12-.25.17-.42.05-.23-.16-.17-.51-.15-.92.5-5.17-1.37-12.53-8.3-17.3-3.42-2.35-8.36-3.51-10.67-.14-1.61,2.34-1.01,5.47,2.21,7.68,4.06,2.8,7.95,1.59,9.18-.19Z"/>
        </g>
        <g>
          <g>
            <polygon class="cls-6" points="177.1 366.14 167.22 395.54 147.06 388.76 149.88 380.38 144.33 378.52 140.26 390.65 171.5 401.15 182.63 368 177.1 366.14"/>
            <path class="cls-6" d="M170.84,364.04l-23.17-7.78-5.57,16.64,23.16,7.78,5.58-16.63ZM161,375l-12.08-4.06,3.02-9.01,12.08,4.06-3.02,9.01Z"/>
          </g>
          <polygon class="cls-6" points="311.73 337.01 327.38 360.87 330.8 358.63 332.96 361.92 300.06 383.5 297.93 380.24 303.27 376.73 294.92 364 299.81 360.79 308.16 373.53 313.33 370.13 304.98 357.4 309.77 354.26 318.1 366.96 322.48 364.09 309.08 343.66 286.69 358.34 284.44 354.9 311.73 337.01"/>
          <polygon class="cls-6" points="223.69 369.36 223.69 379.25 220.02 379.25 220.02 369.36 214.54 369.36 214.54 389.05 196.76 389.05 196.76 373.51 209.06 373.51 209.06 369.35 190.95 369.35 190.95 393.07 214.54 393.07 214.54 404.99 220.02 404.99 220.02 383.42 223.69 383.42 223.69 404.99 229.17 404.99 229.17 369.36 223.69 369.36"/>
          <polygon class="cls-6" points="126.94 359.12 131.67 352.3 108.61 336.26 110.82 333.07 138.81 352.52 131.84 362.53 134.73 364.53 132.48 367.77 117.58 357.4 114.26 362.17 126.8 370.89 118.99 382.12 114.19 378.78 119.75 370.79 95.03 353.6 97.28 350.36 109.46 358.84 112.78 354.07 99.16 344.59 101.41 341.36 126.94 359.12"/>
          <g>
            <polygon class="cls-6" points="267.34 361.07 273.85 381.93 246.7 390.39 247.88 394.16 275.03 385.7 277.93 395.02 283.51 393.27 274.13 363.19 278.54 361.81 277.33 357.94 267.34 361.07"/>
            <path class="cls-6" d="M241.98,379.42c1.51,4.86,7.68,7.26,13.77,5.36,6.08-1.9,9.79-7.37,8.28-12.23-.68-2.17-2.29-3.86-4.42-4.88l3.7-1.16-1.19-3.82-9.26,2.89-1.04-3.33-5.58,1.74,1.04,3.34-9.27,2.89,1.2,3.83,3.64-1.14c-1.17,2.05-1.54,4.35-.87,6.52ZM251.33,370.62c3.09-.96,6.33.68,7.24,3.63.93,2.98-.81,6.15-3.89,7.11-3.07.96-6.31-.66-7.24-3.64-.92-2.96.82-6.14,3.89-7.1Z"/>
          </g>
        </g>
      </g>
    </g>
    <g>
      <path class="cls-1" d="M345.48,147.59c-25.05-52.17-79.57-86.85-140.77-83.51-23.35,1.28-45.34,7.78-64.45,18.57,24.77-1.62,35.95-12,42.5-13.2,6.53-1.26,7.7,3.83,37.48,3.66,29.82-.17,41.31,11,41.31,11,0,0,12.29,15.32,34.33,19.88,22.03,4.56,27.66,24.64,28.67,27.44,1.03,2.85,4.55,16.88,20.93,16.15"/>
      <path class="cls-7" d="M310.48,243.5c3.58-3.36,7.9-6.25,12.63-8,16.67-6.21,25.57-21.19,30.84-33.78.73-1.78,1.41-3.53,1.96-5.13.34-1.07.66-2.12.92-3.03.55-1.91.92-3.54,1.13-4.81.04-.27.08-.54.12-.81-1.41-8.73-3.54-17.2-6.38-25.35.71,8.49-5.07,42.1-26.14,52.42-12.18,5.96-17.24,17.97-16.47,29.85.4-.44.87-.89,1.38-1.36Z"/>
      <path class="cls-4" d="M104.35,257.01c-15.65-15.13-13.07-30.49-13.07-30.49.5-7.18,7.42-10.54-4.8-39.84-11.29-27.2,1.13-38.43,1.13-38.43,0,0,9.79-8.47,5.84-20.54-.28-.9-.52-1.8-.72-2.7-14.31,19.96-23.81,43.68-26.73,69.35.3,1.29,9.89,43.74,38.35,62.64Z"/>
      <path class="cls-8" d="M162.31,350.69s27.44,4.64,45.87-13.74c-6.85,1.05-13.86,1.51-20.97,1.35-70.32-1.57-122.89-66.47-121.22-143.83-.28,2.68-1,9.87-.95,16.9v.06c.18,67.39,43.17,119.63,97.27,139.27Z"/>
      <path class="cls-9" d="M278.49,302.05c-7.85,1.02-14.88-.99-14.88-.99-6.59-2.17-12.25-2.99-17.04-2.92-7.41,7.16-8.12,16.46-8.12,16.46-.29,1.8-.66,3.49-1.08,5.12,11.9-2.26,23.01-6.18,32.78-12.72l.38.51c-11,9.74-23.48,17.4-37.01,22.67-12.83,25.36-42.48,27.09-45.78,27.23,8.04,1.34,16.41,1.85,24.82,1.85,69.57,0,118.24-46.6,135.97-90.77,0-.01.04-.03.04-.03-25.89,38.27-53.93,38.13-70.08,33.58Z"/>
      <path class="cls-2" d="M270.53,307.51l-.38-.51c-9.77,6.54-20.88,10.46-32.78,12.72-.98,3.88-2.29,7.35-3.86,10.46,13.53-5.27,26.01-12.93,37.01-22.67Z"/>
      <path class="cls-5" d="M218.27,322.06c-8.15.6-17.34.47-24.48-.04-37.45-2.67-55.4-38.33-55.4-38.33-7.66-12.37-17.85-16.07-17.85-16.07-7.11-3.3-12.37-6.93-16.19-10.62-28.46-18.9-38.05-61.35-38.35-62.64v.1c-1.66,77.36,50.9,142.26,121.22,143.83,7.11.16,14.12-.3,20.97-1.35,3.88-3.87,7.36-8.74,10.08-14.89Z"/>
      <path class="cls-7" d="M264.98,296.16c-22.7-15.27-42.47-3.44-42.47-3.44-44.18,24.99-62.89-11.55-62.89-11.55-8.51-14.74-27.28-15.42-31.75-15.64-6.99-.33-16.36-3.76-23.53-8.52,3.82,3.69,9.07,7.31,16.19,10.62,0,0,10.19,3.7,17.85,16.07,0,0,1.49,2.89,4.4,7.09,7.39,10.54,24.21,29.33,51,31.24,4.16.3,9.03.46,13.98.43,3.53-.06,7.03-.18,10.51-.4.63-1.44,1.24-2.93,1.81-4.51,0,0,4.83-19.05,26.5-19.41,4.79-.07,10.45.74,17.04,2.92,0,0,7.03,2.02,14.88.99-8.34-2.34-13.51-5.89-13.51-5.89Z"/>
      <path class="cls-3" d="M233.52,330.18c-8.1,3.15-16.58,5.45-25.33,6.76-18.42,18.38-45.87,13.74-45.87,13.74,1.02.4,2,.71,3,1.07,7.26,2.39,14.75,4.32,22.42,5.66,3.3-.14,32.95-1.87,45.78-27.23Z"/>
      <path class="cls-3" d="M220.07,317.55c-.56,1.58-1.18,3.07-1.81,4.51,6.54-.43,12.95-1.14,19.1-2.33.5-1.68.8-3.32,1.08-5.12,0,0,.71-9.31,8.12-16.46-21.66.36-26.5,19.41-26.5,19.41Z"/>
      <path class="cls-8" d="M237.37,319.73c-6.16,1.19-12.56,1.91-19.1,2.33-2.73,6.14-6.2,11.02-10.08,14.89,8.75-1.32,17.23-3.61,25.33-6.76,1.57-3.11,2.87-6.57,3.86-10.46Z"/>
      <g>
        <path class="cls-3" d="M156.36,201.9h.98c2.55,0,5.22-.35,5.22-4v-36.61c0-3.62-2.67-3.98-5.22-3.98h-.98v-2.1c2.81,0,7.03.27,10.65.27,3.82,0,8.38-.27,11.27-.27v2.1h-.87c-2.14,0-5.79.07-5.79,3.98v36.61c0,3.93,3.65,4,5.79,4h.87v2.08c-2.88,0-7.44-.27-11.27-.27-3.62,0-7.84.27-10.65.27v-2.08ZM185.04,155.21c3.05,0,6.04.27,9.07.27s6.29-.27,9.48-.27v2.1h-.9c-4.69,0-8.51,3.15-11.41,6.22l-11.19,11.96,18.17,22.57c1.49,2.08,3.77,3.83,6.45,3.83v2.08c-2.32,0-4.81-.12-7.21-.12-2.26,0-4.47.12-6.74.12-.63-1.32-2.68-4.1-3.66-5.23l-15.27-18.86,14.85-16.35c.91-.91,3.12-3.32,3.12-4.75s-3.04-1.48-3.97-1.48h-.79v-2.1Z"/>
        <path class="cls-3" d="M242.3,191.76l16.72-36.55c2.12,0,4.65.27,7.22.27s5.02-.27,7.49-.27v2.1h-.64c-2.13,0-6.42.13-6.56,3.22-.07,1.82.21,3.91.33,5.44l2.69,32.01c.3,3.49,2.06,3.79,6.28,3.92v2.08c-3.3-.12-6.78-.27-10.17-.27-3.87,0-7.75.15-11.66.27v-2.08c3.69-.22,6.08-.22,6.08-3.29,0-.82,0-1.6-.04-3.41l-2-29.49h-.12l-18.04,39.35h-1.72l-17.12-38.6h-.14l-2.37,30.7c0,2.24.54,3.34,1.47,3.96,1.05.67,2.53.72,4.51.79h.86v2.08c-3.18-.12-6.42-.27-9.63-.27-2.76,0-5.6.15-8.33.27v-2.08h.98c5.63-.22,5.8-2.6,6.46-7.62l2.11-19.43c.55-4.96.84-9.52.84-12.29,0-3.93-3.02-5.25-6.17-5.25h-.92v-2.1c2.92,0,5.74.27,8.67.27,2.12,0,4.22-.27,6.34-.27l16.57,36.55Z"/>
        <path class="cls-3" d="M282.66,162.41c0-5.02-2.59-5.1-5.42-5.1h-.83v-2.1c3.02,0,6.78.27,11.24.27s7.76-.27,10.6-.27v2.1h-.85c-2.85,0-5.66.07-5.66,5.1v24.11c0,8.88,3.35,15.02,13.45,15.02,9.31,0,13.46-5.87,13.46-15.3v-23.84c0-5.02-2.72-5.1-5.12-5.1h-1.41v-2.1c2.82,0,5.74.27,8.56.27s5.43-.27,8.21-.27v2.1h-1.5c-1.91,0-4.5.07-4.5,5.1v22.3c0,15.78-8.49,20.34-19.02,20.34-13.6,0-21.19-4.9-21.19-17.41v-25.23Z"/>
      </g>
      <path class="cls-3" d="M294.21,283.44c-2.51,10.06-8.96,16.19-15.44,18.53-.06.02-.21.06-.27.08,7.3-1.26,32.05-6.69,31.65-36.76,0,0-.09-7.78-1.05-20.43-12.11,12.17-12.38,28.51-14.89,38.58Z"/>
      <path class="cls-8" d="M358.08,187.93c-.17,1.34-.56,3.28-1.24,5.62-.26.92-.58,1.96-.92,3.03-.55,1.6-1.23,3.36-1.96,5.13-5.27,12.59-14.17,27.57-30.84,33.78-5.35,2-10.2,5.43-14.01,9.36.96,12.65,1.05,20.43,1.05,20.43.39,29.53-23.48,35.31-31.25,36.69-.1.02-.21.04-.3.06-.04.01-.07.01-.1.01h-.02c.05.02.29.09.37.11,16.18,4.44,44.02,4.31,69.73-33.69,7.35-17.57,11.33-36.82,11.33-57.02,0-8.02-.64-15.86-1.82-23.52Z"/>
    </g>
  </g>
</svg>